<?xml version="1.0" encoding="UTF-8" standalone="no"?>
<!DOCTYPE svg PUBLIC "-//W3C//DTD SVG 1.1//EN" "http://www.w3.org/Graphics/SVG/1.1/DTD/svg11.dtd">
<svg version="1.1" xmlns="http://www.w3.org/2000/svg" xmlns:xlink="http://www.w3.org/1999/xlink" preserveAspectRatio="xMidYMid meet" viewBox="0 0 355 380" width="355" height="380"><defs><path d="M35.11 23.85L334.52 23.85L334.52 278.24L35.11 278.24L35.11 23.85Z" id="k3gPcqRmC"></path><path d="M332.3 297.85L342.12 285.22L332.3 285.22L332.3 297.85Z" id="a6PtFQQ54O"></path><path d="M27.81 16.08L13.95 28.72L27.81 28.72L27.81 16.08Z" id="a1WduaUgJ6"></path><path d="M12.44 28.29L332.16 28.29L332.16 297.05L12.44 297.05L12.44 28.29Z" id="a1lUfbWV8i"></path><radialGradient id="gradientfiAQxTVVt" gradientUnits="userSpaceOnUse" cx="214.75" cy="155.23" dx="209.09" dy="315.63" r="160.5"><stop style="stop-color: #acf3f8;stop-opacity: 1" offset="0%"></stop><stop style="stop-color: #dff6f9;stop-opacity: 1" offset="100%"></stop></radialGradient><path d="M161.3 280.87L192.33 333.74L130.26 333.74L68.2 333.74L99.23 280.87L130.26 227.99L161.3 280.87Z" id="a8ATfWuGL"></path><path d="" id="a2ja2OZ8wP"></path><path d="M103.83 332.59L102.3 348.68L99.23 364.77" id="dNu8UV8BV"></path><path d="M148.66 333.74L149.81 350.98L150.95 367.07" id="dswKFu9s0"></path><path d="M162.45 287.76L179.69 284.32L188.89 271.67L191.18 255.58" id="cpAQNLPjF"></path><path d="M95.78 287.76L79.69 286.61L65.9 278.57L63.6 262.48" id="aw22tI1iy"></path><path d="M164.75 147.53L262.45 147.53L262.45 242.94L164.75 242.94L164.75 147.53Z" id="aE46cQH5"></path><path d="M233.71 241.79L237.16 257.88L238.31 273.97" id="agc1mYq10"></path><path d="M185.44 242.94L181.99 259.03L178.54 275.12" id="n3OdJzNKF"></path><path d="M261.3 180.87L277.39 178.57L286.59 165.92L290.04 149.83L290.04 133.74" id="a1xW4BhBei"></path><path d="M164.75 180.87L148.66 178.57L136.01 167.07L130.27 152.13" id="f1uQAR6Kwo"></path><path d="M200.38 174.55C200.38 181.21 194.97 186.61 188.31 186.61C181.65 186.61 176.24 181.21 176.24 174.55C176.24 167.88 181.65 162.48 188.31 162.48C194.97 162.48 200.38 167.88 200.38 174.55Z" id="c3hNq0TuX"></path><path d="M244.74 174.49C244.74 181.15 239.33 186.56 232.67 186.56C226.01 186.56 220.6 181.15 220.6 174.49C220.6 167.83 226.01 162.42 232.67 162.42C239.33 162.42 244.74 167.83 244.74 174.49Z" id="e1lJSjNRq"></path><path d="M234.86 210.81C235.05 218.74 225.68 225.41 213.95 225.69C202.21 225.97 192.53 219.77 192.34 211.84C192.15 203.91 201.52 197.25 213.25 196.96C224.98 196.68 234.66 202.89 234.86 210.81Z" id="atniJQnUB"></path><path d="M193.48 177.42C193.48 180.59 190.91 183.17 187.74 183.17C184.56 183.17 181.99 180.59 181.99 177.42C181.99 174.25 184.56 171.67 187.74 171.67C190.91 171.67 193.48 174.25 193.48 177.42Z" id="c17W1gjarh"></path><path d="M235.76 178.41C235.76 181.58 233.19 184.15 230.01 184.15C226.84 184.15 224.27 181.58 224.27 178.41C224.27 175.23 226.84 172.66 230.01 172.66C233.19 172.66 235.76 175.23 235.76 178.41Z" id="b53GVAiTI"></path></defs><g><g><g><g><filter id="shadow9929140" x="26.11" y="14.85" width="318.41" height="273.39" filterUnits="userSpaceOnUse" primitiveUnits="userSpaceOnUse"><feFlood></feFlood><feComposite in2="SourceAlpha" operator="in"></feComposite><feGaussianBlur stdDeviation="1"></feGaussianBlur><feOffset dx="1" dy="1" result="afterOffset"></feOffset><feFlood flood-color="#000000" flood-opacity="0.5"></feFlood><feComposite in2="afterOffset" operator="in"></feComposite><feMorphology operator="dilate" radius="1"></feMorphology><feComposite in2="SourceAlpha" operator="out"></feComposite></filter><path d="M35.11 23.85L334.52 23.85L334.52 278.24L35.11 278.24L35.11 23.85Z" id="bRpiS3dGi" fill="white" fill-opacity="1" filter="url(#shadow9929140)"></path></g><use xlink:href="#k3gPcqRmC" opacity="1" fill="#ffffff" fill-opacity="0"></use><g><use xlink:href="#k3gPcqRmC" opacity="1" fill-opacity="0" stroke="#000000" stroke-width="15" stroke-opacity="1"></use></g></g><g><use xlink:href="#a6PtFQQ54O" opacity="1" fill="#000000" fill-opacity="0.97"></use></g><g><use xlink:href="#a1WduaUgJ6" opacity="1" fill="#000000" fill-opacity="0.97"></use></g><g><use xlink:href="#a1lUfbWV8i" opacity="1" fill="url(#gradientfiAQxTVVt)"></use></g><g><use xlink:href="#a8ATfWuGL" opacity="1" fill="#ff7373" fill-opacity="0.97"></use></g><g><g><use xlink:href="#a2ja2OZ8wP" opacity="1" fill-opacity="0" stroke="#000000" stroke-width="5" stroke-opacity="1"></use></g></g><g><g><use xlink:href="#dNu8UV8BV" opacity="1" fill-opacity="0" stroke="#000000" stroke-width="5" stroke-opacity="1"></use></g></g><g><g><use xlink:href="#dswKFu9s0" opacity="1" fill-opacity="0" stroke="#000000" stroke-width="5" stroke-opacity="1"></use></g></g><g><g><use xlink:href="#cpAQNLPjF" opacity="1" fill-opacity="0" stroke="#000000" stroke-width="5" stroke-opacity="1"></use></g></g><g><g><use xlink:href="#aw22tI1iy" opacity="1" fill-opacity="0" stroke="#000000" stroke-width="5" stroke-opacity="1"></use></g></g><g><use xlink:href="#aE46cQH5" opacity="0.76" fill="#ff7777" fill-opacity="1"></use></g><g><g><use xlink:href="#agc1mYq10" opacity="0.56" fill-opacity="0" stroke="#000000" stroke-width="5" stroke-opacity="1"></use></g></g><g><g><use xlink:href="#n3OdJzNKF" opacity="0.55" fill-opacity="0" stroke="#000000" stroke-width="5" stroke-opacity="1"></use></g></g><g><g><use xlink:href="#a1xW4BhBei" opacity="0.57" fill-opacity="0" stroke="#000000" stroke-width="5" stroke-opacity="1"></use></g></g><g><g><use xlink:href="#f1uQAR6Kwo" opacity="0.57" fill-opacity="0" stroke="#000000" stroke-width="5" stroke-opacity="1"></use></g></g><g><use xlink:href="#c3hNq0TuX" opacity="1" fill="#ffffff" fill-opacity="1"></use></g><g><use xlink:href="#e1lJSjNRq" opacity="1" fill="#ffffff" fill-opacity="1"></use></g><g><use xlink:href="#atniJQnUB" opacity="0.57" fill="#ffd8d8" fill-opacity="1"></use></g><g><use xlink:href="#c17W1gjarh" opacity="0.55" fill="#573636" fill-opacity="1"></use></g><g><use xlink:href="#b53GVAiTI" opacity="0.6" fill="#573636" fill-opacity="1"></use></g></g></g></svg>